<svg width="10" height="6" viewBox="0 0 10 6" fill="none" xmlns="http://www.w3.org/2000/svg">
<path fill-rule="evenodd" clip-rule="evenodd" d="M9.20125 0.664716C9.23458 0.697962 9.26102 0.737456 9.27907 0.780937C9.29711 0.824418 9.3064 0.871032 9.3064 0.918108C9.3064 0.965184 9.29711 1.0118 9.27907 1.05528C9.26102 1.09876 9.23458 1.13825 9.20125 1.1715L4.90648 5.46627C4.87323 5.4996 4.83374 5.52604 4.79026 5.54409C4.74678 5.56213 4.70016 5.57142 4.65309 5.57142C4.60601 5.57142 4.5594 5.56213 4.51592 5.54409C4.47244 5.52605 4.43294 5.4996 4.3997 5.46627L0.104923 1.1715C0.0377198 1.1043 -3.42728e-05 1.01315 -3.42853e-05 0.918109C-3.42977e-05 0.823069 0.0377197 0.731921 0.104923 0.664717C0.172127 0.597514 0.263275 0.559759 0.358315 0.559759C0.453356 0.559759 0.544503 0.597514 0.611707 0.664717L4.65309 4.70681L8.69447 0.664716C8.72771 0.631386 8.76721 0.604943 8.81069 0.5869C8.85417 0.568857 8.90078 0.55957 8.94786 0.55957C8.99493 0.55957 9.04155 0.568857 9.08503 0.5869C9.12851 0.604943 9.168 0.631386 9.20125 0.664716Z" fill="#333333"/>
</svg>
