<svg width="48" height="48" viewBox="0 0 48 48" fill="none" xmlns="http://www.w3.org/2000/svg">
<g filter="url(#filter0_d)">
<circle cx="24" cy="20" r="20" transform="rotate(-90 24 20)" fill="white"/>
</g>
<path fill-rule="evenodd" clip-rule="evenodd" d="M30.8546 17.1451C30.9011 17.1915 30.9381 17.2467 30.9633 17.3074C30.9885 17.3682 31.0015 17.4333 31.0015 17.4991C31.0015 17.5648 30.9885 17.63 30.9633 17.6907C30.9381 17.7514 30.9011 17.8066 30.8546 17.8531L24.8546 23.8531C24.8081 23.8996 24.753 23.9366 24.6922 23.9618C24.6315 23.987 24.5663 24 24.5006 24C24.4348 24 24.3697 23.987 24.3089 23.9618C24.2482 23.9366 24.193 23.8996 24.1466 23.8531L18.1466 17.8531C18.0527 17.7592 17.9999 17.6318 17.9999 17.4991C17.9999 17.3663 18.0527 17.239 18.1466 17.1451C18.2405 17.0512 18.3678 16.9984 18.5006 16.9984C18.6333 16.9984 18.7607 17.0512 18.8546 17.1451L24.5006 22.7921L30.1466 17.1451C30.193 17.0985 30.2482 17.0616 30.3089 17.0363C30.3697 17.0111 30.4348 16.9982 30.5006 16.9982C30.5663 16.9982 30.6315 17.0111 30.6922 17.0363C30.7529 17.0616 30.8081 17.0985 30.8546 17.1451Z" fill="#FD383E"/>
<defs>
<filter id="filter0_d" x="0" y="0" width="48" height="48" filterUnits="userSpaceOnUse" color-interpolation-filters="sRGB">
<feFlood flood-opacity="0" result="BackgroundImageFix"/>
<feColorMatrix in="SourceAlpha" type="matrix" values="0 0 0 0 0 0 0 0 0 0 0 0 0 0 0 0 0 0 127 0"/>
<feOffset dy="4"/>
<feGaussianBlur stdDeviation="2"/>
<feColorMatrix type="matrix" values="0 0 0 0 0.691667 0 0 0 0 0.691667 0 0 0 0 0.691667 0 0 0 0.25 0"/>
<feBlend mode="normal" in2="BackgroundImageFix" result="effect1_dropShadow"/>
<feBlend mode="normal" in="SourceGraphic" in2="effect1_dropShadow" result="shape"/>
</filter>
</defs>
</svg>
