<svg width="48" height="48" viewBox="0 0 48 48" fill="none" xmlns="http://www.w3.org/2000/svg">
<g filter="url(#filter0_d)">
<circle cx="24" cy="20" r="20" transform="rotate(90 24 20)" fill="white"/>
</g>
<path fill-rule="evenodd" clip-rule="evenodd" d="M17.1454 22.8548C17.0989 22.8084 17.0619 22.7532 17.0367 22.6924C17.0115 22.6317 16.9985 22.5666 16.9985 22.5008C16.9985 22.435 17.0115 22.3699 17.0367 22.3092C17.0619 22.2484 17.0989 22.1933 17.1454 22.1468L23.1454 16.1468C23.1919 16.1003 23.247 16.0633 23.3078 16.0381C23.3685 16.0129 23.4337 15.9999 23.4994 15.9999C23.5652 15.9999 23.6303 16.0129 23.6911 16.0381C23.7518 16.0633 23.807 16.1003 23.8534 16.1468L29.8534 22.1468C29.9473 22.2407 30.0001 22.368 30.0001 22.5008C30.0001 22.6336 29.9473 22.7609 29.8534 22.8548C29.7595 22.9487 29.6322 23.0014 29.4994 23.0014C29.3667 23.0014 29.2393 22.9487 29.1454 22.8548L23.4994 17.2078L17.8534 22.8548C17.807 22.9014 17.7518 22.9383 17.6911 22.9635C17.6303 22.9887 17.5652 23.0017 17.4994 23.0017C17.4337 23.0017 17.3685 22.9887 17.3078 22.9635C17.2471 22.9383 17.1919 22.9014 17.1454 22.8548Z" fill="#FD383E"/>
<defs>
<filter id="filter0_d" x="0" y="0" width="48" height="48" filterUnits="userSpaceOnUse" color-interpolation-filters="sRGB">
<feFlood flood-opacity="0" result="BackgroundImageFix"/>
<feColorMatrix in="SourceAlpha" type="matrix" values="0 0 0 0 0 0 0 0 0 0 0 0 0 0 0 0 0 0 127 0"/>
<feOffset dy="4"/>
<feGaussianBlur stdDeviation="2"/>
<feColorMatrix type="matrix" values="0 0 0 0 0.691667 0 0 0 0 0.691667 0 0 0 0 0.691667 0 0 0 0.25 0"/>
<feBlend mode="normal" in2="BackgroundImageFix" result="effect1_dropShadow"/>
<feBlend mode="normal" in="SourceGraphic" in2="effect1_dropShadow" result="shape"/>
</filter>
</defs>
</svg>
